<svg width="82" height="32" viewBox="0 0 82 32" fill="none" xmlns="http://www.w3.org/2000/svg">
  <g clip-path="url(#clip0)">
    <path d="M46.5601 16.3671H32.3981V19.1928H51.0575C52.5046 19.1928 53.6775 18.0252 53.6775 16.5847V14.8022H46.5566V16.3671H46.5601Z" fill="black" />
    <path fill-rule="evenodd" clip-rule="evenodd" d="M46.5601 0H53.681V14.0699H46.5601V0Z" fill="black" />
    <path d="M45.6162 0H35.0181C33.571 0 32.3981 1.1676 32.3981 2.6081V15.6348H39.4808V5.13675C39.4808 4.40787 39.9215 3.76534 40.567 3.55462L45.6162 1.87922V0Z" fill="black" />
    <path d="M63.4497 0C62.0026 0 60.8297 1.1676 60.8297 2.6081V19.1963H67.9124V5.13675C67.9124 4.40787 68.3531 3.7688 68.9986 3.55462L74.0478 1.87922V19.1929H81.1687V0H63.4497Z" fill="black" />
    <path d="M27.4461 0H16.848C15.4009 0 14.228 1.1676 14.228 2.6081V19.1963H21.3107V5.13675C21.3107 4.40787 21.7514 3.76534 22.3969 3.55462L27.4461 1.87922V0Z" fill="black" />
    <path d="M7.0758 0.00341797V19.1928H0V3.66167C0 2.84297 0.440719 2.22117 1.02372 2.01045C1.72817 1.76173 7.0758 0.00341797 7.0758 0.00341797Z" fill="black" />
    <path d="M29.3269 30.8341H32.5473V30.2572H30.0105V28.7753H32.1204V28.1984H30.0105V26.8201H32.5473V26.2432H29.3269V30.8341ZM18.8989 30.8341H19.5825V26.2432H18.8989V30.8341ZM13.9399 26.2432H13.2563V30.8341H16.2997V30.2572H13.9399V26.2432ZM2.65126 26.2432H0.995956C0.319261 26.2432 0 26.5368 0 27.1621V29.9153C0 30.5371 0.319261 30.8341 0.995956 30.8341H2.65126C3.32795 30.8341 3.64721 30.5405 3.64721 29.9153V27.1621C3.64721 26.5403 3.32795 26.2432 2.65126 26.2432ZM2.96358 29.898C2.96358 30.1605 2.856 30.2572 2.57144 30.2572H1.06536C0.787742 30.2572 0.680165 30.1605 0.680165 29.898V27.1828C0.680165 26.9203 0.787742 26.8235 1.06536 26.8235H2.57144C2.856 26.8235 2.96358 26.9203 2.96358 27.1828V29.898ZM9.60907 29.8185L7.24237 26.2432H6.50321V30.8341H7.15908V27.1897L9.5813 30.8341H10.2649V26.2432H9.60907V29.8185ZM25.6797 29.8185L23.313 26.2432H22.5738V30.8341H23.2262V27.1897L25.6519 30.8341H26.3356V26.2432H25.6797V29.8185ZM67.7389 26.2432H66.0836C65.4069 26.2432 65.0876 26.5368 65.0876 27.1621V29.9153C65.0876 30.5371 65.4069 30.8341 66.0836 30.8341H67.7389C68.4156 30.8341 68.7348 30.5405 68.7348 29.9153V27.1621C68.7348 26.5403 68.4156 26.2432 67.7389 26.2432ZM68.0547 29.898C68.0547 30.1605 67.9471 30.2572 67.6625 30.2572H66.1565C65.8788 30.2572 65.7713 30.1605 65.7713 29.898V27.1828C65.7713 26.9203 65.8788 26.8235 66.1565 26.8235H67.6625C67.9471 26.8235 68.0547 26.9203 68.0547 27.1828V29.898ZM59.1188 26.8132H60.5833V30.8341H61.2669V26.8132H62.7383V26.2432H59.1188V26.8132ZM81.1652 26.8201V26.2432H77.9448V30.8341H81.1652V30.2572H78.6285V28.7753H80.7384V28.1984H78.6285V26.8201H81.1652ZM75.0819 28.1086V27.1655C75.0819 26.5437 74.7626 26.2466 74.0859 26.2466H71.5908V30.8341H72.2745V29.0309H73.4752L74.4919 30.8341H75.238L74.2213 29.0171C74.8043 28.9791 75.0819 28.6855 75.0819 28.1086ZM72.2745 28.4609V26.8132H74.0096C74.2941 26.8132 74.4017 26.9099 74.4017 27.1724V28.1051C74.4017 28.3608 74.2941 28.4609 74.0096 28.4609H72.2745ZM55.7909 28.3504L54.4201 28.0602C54.1286 28.0015 54.0002 27.9151 54.0002 27.6353V27.1552C54.0002 26.8995 54.1078 26.7994 54.3854 26.7994H55.6798C55.9575 26.7994 56.065 26.8961 56.065 27.1552V27.6146H56.7417V27.1621C56.7417 26.5403 56.4225 26.2432 55.7458 26.2432H54.316C53.6393 26.2432 53.3201 26.5368 53.3201 27.1621V27.7182C53.3201 28.3746 53.7608 28.5369 54.3438 28.6544L55.7076 28.9377C56.006 29.0033 56.1344 29.0896 56.1344 29.3695V29.9187C56.1344 30.1743 56.0269 30.2745 55.7423 30.2745H54.3646C54.0801 30.2745 53.9725 30.1778 53.9725 29.9187V29.4075H53.3027V29.9118C53.3027 30.5336 53.622 30.8307 54.2987 30.8307H55.8186C56.4953 30.8307 56.8146 30.5371 56.8146 29.9118V29.2831C56.8146 28.6302 56.3669 28.4678 55.7909 28.3504ZM41.3755 31.9672H42.9614L48.1703 24.7612H46.5844L41.3755 31.9672ZM42.6977 24.7612L37.4889 31.9672H39.0748L44.2836 24.7612H42.6977Z" fill="black" />
  </g>
  <defs>
    <clipPath id="clip0">
      <rect width="81.2308" height="32" fill="white" />
    </clipPath>
  </defs>
</svg>
