<svg width="25" height="23" viewBox="0 0 25 23" fill="none" xmlns="http://www.w3.org/2000/svg">
  <path d="M24.0478 0.73113C23.7275 0.464656 23.3409 0.290012 22.9292 0.225785C22.5175 0.161558 22.0961 0.210152 21.7099 0.366393L1.54887 8.50616C1.11771 8.68356 0.750698 8.98788 0.496542 9.37873C0.242386 9.76959 0.113106 10.2285 0.125861 10.6945C0.138615 11.1606 0.292802 11.6117 0.567955 11.9881C0.843109 12.3645 1.22622 12.6483 1.66643 12.8018L5.74455 14.2201L8.01762 21.737C8.04851 21.8374 8.09334 21.933 8.15079 22.0209C8.15951 22.0344 8.17181 22.0445 8.18108 22.0576C8.24746 22.1502 8.32768 22.2321 8.41894 22.3003C8.44489 22.3201 8.46974 22.3386 8.49749 22.3562C8.60429 22.4271 8.72256 22.4789 8.84706 22.5093L8.86038 22.5105L8.86793 22.5137C8.94278 22.5289 9.01896 22.5367 9.09534 22.5368C9.10269 22.5368 9.10922 22.5333 9.11649 22.5331C9.23176 22.5311 9.34603 22.5113 9.45522 22.4743C9.48062 22.4656 9.50239 22.4511 9.52704 22.4407C9.60847 22.407 9.68561 22.3637 9.75687 22.3118C9.81393 22.2637 9.87101 22.2157 9.92811 22.1676L12.968 18.8113L17.5021 22.3236C17.9013 22.6344 18.3926 22.8033 18.8985 22.8037C19.4285 22.8031 19.9423 22.6202 20.3535 22.2857C20.7648 21.9513 21.0486 21.4856 21.1573 20.9668L24.8278 2.94818C24.911 2.54264 24.8823 2.12211 24.7449 1.73159C24.6075 1.34107 24.3666 0.995252 24.0478 0.73113ZM9.54143 14.5783C9.38544 14.7337 9.27881 14.9317 9.23491 15.1474L8.88671 16.8394L8.00465 13.9222L12.5781 11.5406L9.54143 14.5783ZM18.8809 20.5449L13.5229 16.3943C13.2987 16.2211 13.0175 16.1387 12.7353 16.1635C12.4531 16.1884 12.1906 16.3186 12.0002 16.5283L11.0266 17.6029L11.3706 15.9307L19.339 7.9623C19.5292 7.77236 19.6451 7.52058 19.6657 7.25257C19.6863 6.98455 19.6102 6.71804 19.4512 6.50128C19.2922 6.28453 19.0609 6.13189 18.7991 6.07099C18.5372 6.0101 18.2623 6.04499 18.024 6.16934L6.58802 12.1235L2.39812 10.5903L22.6239 2.49881L18.8809 20.5449Z" fill="#545454" />
</svg>
  